Coordinates
version=1
nRows=9
nColumns=24
inDegrees=yes

Units are S.I. units (second, meters, Newtons, ...)
Angles are in degrees.

endheader
time	pelvis_tilt	pelvis_list	pelvis_rotation	pelvis_tx	pelvis_ty	pelvis_tz	hip_flexion_r	hip_adduction_r	hip_rotation_r	knee_angle_r	ankle_angle_r	subtalar_angle_r	mtp_angle_r	hip_flexion_l	hip_adduction_l	hip_rotation_l	knee_angle_l	ankle_angle_l	subtalar_angle_l	mtp_angle_l	lumbar_extension	lumbar_bending	lumbar_rotation
      4.73500000	    -10.44897034	      5.63583389	     -5.65318250	      2.42327686	     -0.00551481	     -0.48277342	     34.29763192	     -8.92660732	     -4.03869594	    -44.22184648	     -4.20647303	      3.18021065	     23.36655443	      4.44561992	     10.40472329	     -7.58512818	     -3.24842820	     -1.56816667	      6.28460896	      6.89805880	     10.98199880	     -6.49594091	     -5.07705393
      4.74000000	    -10.53891250	      5.52992970	     -5.53103613	      2.42792277	     -0.00581591	     -0.48293570	     34.57400122	     -8.70061162	     -4.23082533	    -42.98031621	     -4.05776570	      3.01265111	     22.78584114	      4.26027466	     10.31618802	     -7.41853316	     -3.30671670	     -1.36522972	      6.35793898	      6.94929026	     11.01478057	     -6.35743159	     -5.16048723
      4.74500000	    -10.63311095	      5.42299125	     -5.44131374	      2.43261811	     -0.00609788	     -0.48307434	     34.83493412	     -8.46143787	     -4.41463931	    -41.68918153	     -3.99514340	      2.88614240	     22.43038968	      4.06765630	     10.22424335	     -7.28623356	     -3.33961637	     -1.20604967	      6.42095362	      6.99193339	     11.06722339	     -6.20483975	     -5.21366245
      4.75000000	    -10.71582795	      5.29846106	     -5.34252248	      2.43731021	     -0.00637534	     -0.48322235	     35.05357726	     -8.21219150	     -4.61717018	    -40.36703714	     -3.93687181	      2.83413349	     22.06531820	      3.86974234	     10.11383684	     -7.16560976	     -3.39101527	     -1.02499564	      6.50071842	      7.04650127	     11.10038697	     -6.03742023	     -5.27585037
      4.75500000	    -10.77455436	      5.17274671	     -5.24542713	      2.44196746	     -0.00663896	     -0.48333339	     35.22581020	     -7.95023334	     -4.76844107	    -39.02265442	     -3.87124826	      2.87845141	     21.62899955	      3.65239973	      9.99629528	     -7.03598442	     -3.45465864	     -0.82835929	      6.62662091	      7.11818873	     11.10219846	     -5.87237869	     -5.34537350
      4.76000000	    -10.89507977	      5.09725450	     -5.21772763	      2.44662048	     -0.00702443	     -0.48341043	     35.48707758	     -7.70067286	     -4.84727883	    -37.67498474	     -3.85647303	      3.05496327	     21.45615138	      3.51117704	      9.92794305	     -6.96736409	     -3.51200047	     -0.67763764	      6.64464371	      7.17255942	     11.18764909	     -5.72681931	     -5.30557630
      4.76500000	    -10.93861425	      4.94583879	     -5.10632076	      2.45127808	     -0.00723715	     -0.48348501	     35.58922007	     -7.41387730	     -5.00049527	    -36.27707602	     -3.86365892	      3.18442134	     20.98472646	      3.27957851	      9.77483078	     -6.85658567	     -3.58424476	     -0.48096067	      6.85696177	      7.27234705	     11.16878395	     -5.54761123	     -5.41469339
      4.77000000	    -11.08324292	      4.86933245	     -5.08421172	      2.45596124	     -0.00766580	     -0.48351306	     35.83741702	     -7.14551048	     -5.04544942	    -34.89325882	     -3.88663809	      3.43412087	     20.85060474	      3.16284843	      9.69668538	     -6.78643175	     -3.64131257	     -0.33310237	      6.87662255	      7.33125438	     11.28752137	     -5.39908616	     -5.36133593
      4.77500000	    -11.21302379	      4.74520458	     -5.00649750	      2.46063057	     -0.00800185	     -0.48355897	     36.02169092	     -6.85708771	     -5.14231555	    -33.47150241	     -3.99566023	      3.66306298	     20.65281455	      3.02919365	      9.56156899	     -6.67652554	     -3.71027881	     -0.17244182	      7.00450359	      7.41557192	     11.37350034	     -5.22391589	     -5.39122177
